REM MD5 a7af6b9d096ad74f27ef8c844ca4fca3
FILE "Toushinden Otanoshimi-Ban (Japan) (Demo).bin" BINARY
  TRACK 01 MODE2/2352
    INDEX 01 00:00:00
  TRACK 02 AUDIO
    INDEX 00 01:23:09
    INDEX 01 01:25:09
  TRACK 03 AUDIO
    INDEX 00 04:36:62
    INDEX 01 04:38:62
REM LEADOUT 07:38:07
